<?xml version="1.0" encoding="UTF-8"?><svg id="a" xmlns="http://www.w3.org/2000/svg" width="495.92" height="426.81" viewBox="0 0 495.92 426.81"><defs><style>.b{fill:#ee2e50;}.b,.c,.d,.e{stroke:#010101;stroke-miterlimit:10;stroke-width:2px;}.c{fill:#fff;}.d{fill:#112e51;}.e{fill:#1983c6;}</style></defs><path class="d" d="M218.6,182.58c0,5.79-4.67,10.47-10.47,10.47h0c-5.79,0-10.47-4.67-10.47-10.47v-24.57c0-5.79,4.67-10.47,10.47-10.47h0c5.79,0,10.47,4.67,10.47,10.47v24.57Z"/><path class="d" d="M298.25,182.58c0,5.79-4.67,10.47-10.47,10.47h0c-5.79,0-10.47-4.67-10.47-10.47v-24.57c0-5.79,4.67-10.47,10.47-10.47h0c5.79,0,10.47,4.67,10.47,10.47v24.57Z"/><path class="b" d="M163.4,332.01c-18.65-11.5-46.65,0-62.51,25.8-15.86,25.8-13.62,55.92,5.07,67.46l14.18-48.85,43.26-44.42Z"/><path class="b" d="M332.52,332.01c18.65-11.5,46.65,0,62.51,25.8,15.86,25.8,13.62,55.92-5.07,67.46l-14.18-48.85-43.26-44.42Z"/><path class="b" d="M195.47,373.91c-10.27-3.99-26.56,3.12-31.95,17.26s1.96,30,12.22,33.95l2.88-26.16s16.86-25.04,16.86-25.04Z"/><path class="b" d="M300.44,373.91c10.27-3.99,26.56,3.12,31.95,17.26,5.39,14.14-1.96,30-11.98,33.95l-2.92-26.16-17.06-25.04Z"/><path class="b" d="M112.59,81.64c3.51-36.23,48.65-51.57,86.24-51.33-.2-.56-.4-1.12-.64-1.68-7.39-15.98-71.14-42.02-123.82-17.73-27.4,12.46-49.81,33.83-63.59,60.59-27.96,54.64,7.51,136.53,62.47,136.53h11.66c4.83-32.35-19.37-55.92-46.97-67.62v-.2c26.84,6.91,66.03,6.75,93.27-5.79,27.24-12.54,49.77-35.59,57.48-58.28.24-.6,1.2-2.96,0-2.24-1.92,1.24-3.95,2.32-6.07,3.2-3.24,1.4-6.59,2.6-9.99,3.55-21.41,5.99-45.46,7.71-60.03,1Z"/><path class="b" d="M383.33,81.64c-3.51-36.23-48.65-51.57-86.24-51.33.2-.56.4-1.12.64-1.68,7.39-15.98,71.14-42.02,123.82-17.73,27.4,12.46,49.81,33.83,63.59,60.59,27.96,54.64-7.51,136.53-62.43,136.53h-11.7c-4.83-32.35,19.37-55.92,46.97-67.62v-.2c-26.84,6.91-66.03,6.75-93.27-5.79-27.24-12.54-49.77-35.59-57.48-58.28-.24-.6-1.2-2.96,0-2.24,1.92,1.24,3.95,2.32,6.07,3.2,3.24,1.4,6.59,2.6,9.99,3.55,21.41,5.99,45.46,7.71,60.03,1Z"/><path class="e" d="M69.93,207.18c0,78.41,79.69,142,178.03,142s178.03-63.59,178.03-142H69.93Z"/><path class="c" d="M248.32,422.04c-1.88-.16-3.63-.96-5.03-2.2-33.07-24.37-77.97-86.92-78.41-87.52-1.04-1.08-1.64-2.52-1.64-3.99v-155.02c0-3.04,2.4-5.47,5.43-5.51h158.53c3.04,0,5.47,2.44,5.47,5.47v155.1c0,1.4-.52,2.72-1.48,3.75-.6.84-45.02,63.39-77.89,87.88-1.4,1.24-3.12,2.04-4.99,2.2,0,0,0-.16,0-.16Z"/><path class="b" d="M327.21,169.68c2,0,3.59,1.6,3.59,3.59v155.1c0,.92-.32,1.8-.96,2.48h0v.24c-.44.6-44.7,62.91-77.33,87.08-1.12,1-2.52,1.64-3.99,1.84-1.52-.16-2.92-.8-3.99-1.84-32.83-24.17-77.57-86.48-78.01-87.12v-.2h0c-.64-.68-.96-1.56-.96-2.48v-155.06c0-2,1.56-3.59,3.55-3.63h158.53M327.65,165.92h-158.93c-4.07,0-7.35,3.28-7.35,7.35v155.1c0,1.88.72,3.67,2,5.03,0,0,45.1,63.15,78.81,87.88,3.36,3.4,8.83,3.4,12.18.08,0,0,.04-.04.08-.08,33.47-24.8,78.13-87.88,78.13-87.88,1.28-1.36,2-3.16,2-5.03v-155.06c0-4.07-3.24-7.35-7.31-7.39h-.04.44Z"/><path class="b" d="M168.71,165.92h158.49c4.07,0,7.35,3.28,7.35,7.35v155.1c0,1.88-.72,3.67-2,5.03,0,0-13.9,19.65-31.95,41.34v-126.14h-35.63v164.09c-3.55,3.2-7.07,6.15-10.51,8.67-3.4,3.4-8.87,3.4-12.26,0h0c-3.87-2.88-7.63-5.95-11.18-9.23v-163.53h-35.63v125.78c-18.13-21.53-31.95-40.98-31.95-40.98-1.28-1.36-2-3.16-2-5.03v-155.06c0-4.03,3.24-7.35,7.27-7.39Z"/><polygon class="c" points="365.51 240.7 350.69 242.85 361.4 253.32 358.88 268.1 372.14 261.11 385.4 268.1 382.89 253.32 393.59 242.85 378.77 240.7 372.14 227.24 365.51 240.7"/><polygon class="c" points="117.15 240.7 102.33 242.85 113.03 253.32 110.51 268.1 123.78 261.11 137.04 268.1 134.52 253.32 145.23 242.85 130.41 240.7 123.78 227.24 117.15 240.7"/><path class="d" d="M212.85,188.21c6.03,17.1,19.49,28.96,35.11,28.96s29.08-11.98,35.11-28.96h-70.22Z"/></svg>