<?xml version="1.0" encoding="UTF-8"?>
<svg id="a" xmlns="http://www.w3.org/2000/svg" width="24" height="24" viewBox="0 0 24 24">
    <defs>
        <style>
            .b{fill:#1983c6;}.b,.c,.d,.e{stroke:#000;stroke-miterlimit:10;stroke-width:.1px;}.c{fill:#112e51;}.d{fill:#fff;}.e{fill:#ee2e50;}
        </style>
    </defs>
    <path class="c"
          d="M10.44,8.72c0,.28-.22.5-.5.5h0c-.28,0-.5-.22-.5-.5v-1.17c0-.28.22-.5.5-.5h0c.28,0,.5.22.5.5v1.17Z"/>
    <path class="c"
          d="M14.24,8.72c0,.28-.22.5-.5.5h0c-.28,0-.5-.22-.5-.5v-1.17c0-.28.22-.5.5-.5h0c.28,0,.5.22.5.5v1.17Z"/>
    <path class="e" d="M7.8,15.85c-.89-.55-2.23,0-2.98,1.23s-.65,2.67.24,3.22l.68-2.33,2.07-2.12Z"/>
    <path class="e" d="M15.88,15.85c.89-.55,2.23,0,2.98,1.23s.65,2.67-.24,3.22l-.68-2.33-2.07-2.12Z"/>
    <path class="e" d="M9.33,17.85c-.49-.19-1.27.15-1.53.82s.09,1.43.58,1.62l.14-1.25.8-1.2Z"/>
    <path class="e" d="M14.35,17.85c.49-.19,1.27.15,1.53.82s-.09,1.43-.57,1.62l-.14-1.25-.81-1.2Z"/>
    <path class="e"
          d="M5.38,3.9c.17-1.73,2.32-2.46,4.12-2.45,0-.03-.02-.05-.03-.08-.35-.76-3.4-2.01-5.91-.85-1.31.6-2.38,1.61-3.04,2.89-1.34,2.61.36,6.52,2.98,6.52h.56c.23-1.54-.93-2.67-2.24-3.23h0c1.28.32,3.15.31,4.45-.29s2.38-1.7,2.74-2.78c.01-.03.06-.14,0-.11-.09.06-.19.11-.29.15-.16.07-.31.12-.48.17-1.02.29-2.17.37-2.87.05Z"/>
    <path class="e"
          d="M18.3,3.9c-.17-1.73-2.32-2.46-4.12-2.45,0-.03.02-.05.03-.08.35-.76,3.4-2.01,5.91-.85,1.31.6,2.38,1.61,3.04,2.89,1.34,2.61-.36,6.52-2.98,6.52h-.56c-.23-1.54.93-2.67,2.24-3.23h0c-1.28.32-3.15.31-4.45-.29s-2.38-1.7-2.74-2.78c-.01-.03-.06-.14,0-.11.09.06.19.11.29.15.16.07.31.12.48.17,1.02.29,2.17.37,2.87.05Z"/>
    <path class="b" d="M3.34,9.89c0,3.74,3.8,6.78,8.5,6.78s8.5-3.04,8.5-6.78H3.34Z"/>
    <path class="d"
          d="M11.86,20.15c-.09,0-.17-.05-.24-.1-1.58-1.16-3.72-4.15-3.74-4.18-.05-.05-.08-.12-.08-.19v-7.4c0-.14.12-.26.26-.26,0,0,0,0,0,0h7.57c.14,0,.26.12.26.26,0,0,0,0,0,0v7.4c0,.07-.03.13-.07.18-.03.04-2.15,3.03-3.72,4.2-.07.06-.15.1-.24.1h0Z"/>
    <path class="e"
          d="M15.62,8.1c.09,0,.17.08.17.17,0,0,0,0,0,0v7.4s-.02.09-.05.12h0s-2.13,3.02-3.69,4.17c-.05.05-.12.08-.19.09-.07,0-.14-.04-.19-.09-1.57-1.15-3.7-4.13-3.72-4.16h0s-.05-.08-.05-.13v-7.4c0-.09.07-.17.17-.17,0,0,0,0,0,0h7.57M15.64,7.92h-7.59c-.19,0-.35.16-.35.35,0,0,0,0,0,0v7.4c0,.09.03.18.1.24,0,0,2.15,3.02,3.76,4.2.16.16.42.16.58,0,0,0,0,0,0,0,1.6-1.18,3.73-4.2,3.73-4.2.06-.07.1-.15.1-.24v-7.4c0-.19-.16-.35-.35-.35,0,0,0,0,0,0h.02Z"/>
    <path class="e"
          d="M8.06,7.92h7.57c.19,0,.35.16.35.35,0,0,0,0,0,0v7.4c0,.09-.03.18-.1.24,0,0-.66.94-1.53,1.97v-6.02h-1.7v7.83c-.17.15-.34.29-.5.41-.16.16-.42.16-.59,0h0c-.19-.14-.36-.29-.53-.44v-7.81h-1.7v6.01c-.87-1.03-1.53-1.96-1.53-1.96-.06-.07-.1-.15-.1-.24v-7.4c0-.19.15-.35.35-.35Z"/>
    <polygon class="d"
             points="17.45 11.49 16.75 11.6 17.26 12.1 17.14 12.8 17.77 12.47 18.4 12.8 18.28 12.1 18.79 11.6 18.09 11.49 17.77 10.85 17.45 11.49"/>
    <polygon class="d"
             points="5.59 11.49 4.89 11.6 5.4 12.1 5.28 12.8 5.91 12.47 6.54 12.8 6.42 12.1 6.93 11.6 6.23 11.49 5.91 10.85 5.59 11.49"/>
    <path class="c" d="M10.16,8.99c.29.82.93,1.38,1.68,1.38s1.39-.57,1.68-1.38h-3.35Z"/>
</svg>
